G04*
G04 #@! TF.GenerationSoftware,Altium Limited,Altium Designer,21.0.8 (223)*
G04*
G04 Layer_Color=8388736*
%FSLAX25Y25*%
%MOIN*%
G70*
G04*
G04 #@! TF.SameCoordinates,FD3CFD28-5B3B-4256-89A7-50AFAC898629*
G04*
G04*
G04 #@! TF.FilePolarity,Negative*
G04*
G01*
G75*
%ADD21R,0.16142X0.07874*%
%ADD22R,0.03543X0.02953*%
%ADD23R,0.02953X0.03543*%
G04:AMPARAMS|DCode=24|XSize=95.2mil|YSize=55.83mil|CornerRadius=14.12mil|HoleSize=0mil|Usage=FLASHONLY|Rotation=180.000|XOffset=0mil|YOffset=0mil|HoleType=Round|Shape=RoundedRectangle|*
%AMROUNDEDRECTD24*
21,1,0.09520,0.02759,0,0,180.0*
21,1,0.06696,0.05583,0,0,180.0*
1,1,0.02824,-0.03348,0.01379*
1,1,0.02824,0.03348,0.01379*
1,1,0.02824,0.03348,-0.01379*
1,1,0.02824,-0.03348,-0.01379*
%
%ADD24ROUNDEDRECTD24*%
%ADD25R,0.04343X0.03753*%
%ADD26C,0.05200*%
%ADD27C,0.06724*%
%ADD28C,0.05500*%
%ADD29C,0.14598*%
%ADD30C,0.07197*%
%ADD31C,0.07079*%
%ADD32R,0.09000X0.09000*%
%ADD33C,0.09000*%
%ADD34C,0.05150*%
%ADD35C,0.04921*%
%ADD36R,0.04921X0.04921*%
%ADD37C,0.06000*%
%ADD38R,0.04921X0.04921*%
%ADD39C,0.04000*%
D21*
X170874Y169000D02*
D03*
X205126D02*
D03*
D22*
X331500Y57138D02*
D03*
D23*
X189362Y134000D02*
D03*
X184638D02*
D03*
D24*
X127583Y185177D02*
D03*
Y194823D02*
D03*
X150417D02*
D03*
Y185177D02*
D03*
D25*
X331500Y61862D02*
D03*
D26*
X404000Y104000D02*
D03*
X394000D02*
D03*
X414000D02*
D03*
X401000Y133000D02*
D03*
X391000D02*
D03*
X411000D02*
D03*
D27*
X49000Y19500D02*
D03*
Y39000D02*
D03*
Y58500D02*
D03*
X362000Y57591D02*
D03*
Y16409D02*
D03*
X532000Y201000D02*
D03*
Y181500D02*
D03*
Y162000D02*
D03*
Y23000D02*
D03*
Y42500D02*
D03*
Y62000D02*
D03*
X363000Y205591D02*
D03*
Y164409D02*
D03*
D28*
X225500Y191500D02*
D03*
Y181500D02*
D03*
Y171500D02*
D03*
Y161500D02*
D03*
Y151500D02*
D03*
Y141500D02*
D03*
Y131500D02*
D03*
Y121500D02*
D03*
Y111500D02*
D03*
Y101500D02*
D03*
Y91500D02*
D03*
Y81500D02*
D03*
Y71500D02*
D03*
Y61500D02*
D03*
Y51500D02*
D03*
X315500Y191500D02*
D03*
Y181500D02*
D03*
Y171500D02*
D03*
Y161500D02*
D03*
Y151500D02*
D03*
Y141500D02*
D03*
Y131500D02*
D03*
Y121500D02*
D03*
Y111500D02*
D03*
Y101500D02*
D03*
Y91500D02*
D03*
Y81500D02*
D03*
Y71500D02*
D03*
Y61500D02*
D03*
Y51500D02*
D03*
D29*
X230500Y206500D02*
D03*
X310500D02*
D03*
Y36500D02*
D03*
X230500D02*
D03*
D30*
X445984Y67122D02*
D03*
Y19878D02*
D03*
X494016D02*
D03*
Y67122D02*
D03*
X445984Y204122D02*
D03*
Y156878D02*
D03*
X494016D02*
D03*
Y204122D02*
D03*
D31*
X438110Y43500D02*
D03*
Y180500D02*
D03*
D32*
X22630Y178370D02*
D03*
D33*
Y99630D02*
D03*
X101370Y119315D02*
D03*
Y158685D02*
D03*
D34*
X383000Y181000D02*
D03*
Y191000D02*
D03*
X384000Y32000D02*
D03*
Y42000D02*
D03*
D35*
X362315Y74000D02*
D03*
X341000Y165315D02*
D03*
X347000Y107685D02*
D03*
X421685Y205000D02*
D03*
D36*
X401685Y74000D02*
D03*
X382315Y205000D02*
D03*
D37*
X177000Y113000D02*
D03*
X187000D02*
D03*
X197000D02*
D03*
D38*
X341000Y204685D02*
D03*
X347000Y68315D02*
D03*
D39*
X393000Y67000D02*
D03*
X423000D02*
D03*
X352000Y138000D02*
D03*
Y165000D02*
D03*
X446000Y168500D02*
D03*
Y194000D02*
D03*
M02*
