G04*
G04 #@! TF.GenerationSoftware,Altium Limited,Altium Designer,21.0.8 (223)*
G04*
G04 Layer_Color=128*
%FSLAX25Y25*%
%MOIN*%
G70*
G04*
G04 #@! TF.SameCoordinates,FD3CFD28-5B3B-4256-89A7-50AFAC898629*
G04*
G04*
G04 #@! TF.FilePolarity,Positive*
G04*
G01*
G75*
%ADD59C,0.00200*%
D59*
X402400Y104000D02*
X405600D01*
X404000Y102400D02*
Y105600D01*
X392400Y104000D02*
X395600D01*
X394000Y102400D02*
Y105600D01*
X412400Y104000D02*
X415600D01*
X414000Y102400D02*
Y105600D01*
X46638Y19500D02*
X51362D01*
X49000Y17138D02*
Y21862D01*
X46638Y39000D02*
X51362D01*
X49000Y36638D02*
Y41362D01*
X46638Y58500D02*
X51362D01*
X49000Y56138D02*
Y60862D01*
X223750Y191500D02*
X227250D01*
X225500Y189750D02*
Y193250D01*
X223750Y181500D02*
X227250D01*
X225500Y179750D02*
Y183250D01*
X223750Y171500D02*
X227250D01*
X225500Y169750D02*
Y173250D01*
X223750Y161500D02*
X227250D01*
X225500Y159750D02*
Y163250D01*
X223750Y151500D02*
X227250D01*
X225500Y149750D02*
Y153250D01*
X223750Y141500D02*
X227250D01*
X225500Y139750D02*
Y143250D01*
X223750Y131500D02*
X227250D01*
X225500Y129750D02*
Y133250D01*
X223750Y121500D02*
X227250D01*
X225500Y119750D02*
Y123250D01*
X223750Y111500D02*
X227250D01*
X225500Y109750D02*
Y113250D01*
X223750Y101500D02*
X227250D01*
X225500Y99750D02*
Y103250D01*
X223750Y91500D02*
X227250D01*
X225500Y89750D02*
Y93250D01*
X223750Y81500D02*
X227250D01*
X225500Y79750D02*
Y83250D01*
X223750Y71500D02*
X227250D01*
X225500Y69750D02*
Y73250D01*
X223750Y61500D02*
X227250D01*
X225500Y59750D02*
Y63250D01*
X223750Y51500D02*
X227250D01*
X225500Y49750D02*
Y53250D01*
X313750Y191500D02*
X317250D01*
X315500Y189750D02*
Y193250D01*
X313750Y181500D02*
X317250D01*
X315500Y179750D02*
Y183250D01*
X313750Y171500D02*
X317250D01*
X315500Y169750D02*
Y173250D01*
X313750Y161500D02*
X317250D01*
X315500Y159750D02*
Y163250D01*
X313750Y151500D02*
X317250D01*
X315500Y149750D02*
Y153250D01*
X313750Y141500D02*
X317250D01*
X315500Y139750D02*
Y143250D01*
X313750Y131500D02*
X317250D01*
X315500Y129750D02*
Y133250D01*
X313750Y121500D02*
X317250D01*
X315500Y119750D02*
Y123250D01*
X313750Y111500D02*
X317250D01*
X315500Y109750D02*
Y113250D01*
X313750Y101500D02*
X317250D01*
X315500Y99750D02*
Y103250D01*
X313750Y91500D02*
X317250D01*
X315500Y89750D02*
Y93250D01*
X313750Y81500D02*
X317250D01*
X315500Y79750D02*
Y83250D01*
X313750Y71500D02*
X317250D01*
X315500Y69750D02*
Y73250D01*
X313750Y61500D02*
X317250D01*
X315500Y59750D02*
Y63250D01*
X313750Y51500D02*
X317250D01*
X315500Y49750D02*
Y53250D01*
X224201Y206500D02*
X236799D01*
X230500Y200201D02*
Y212799D01*
X304201Y206500D02*
X316799D01*
X310500Y200201D02*
Y212799D01*
X304201Y36500D02*
X316799D01*
X310500Y30201D02*
Y42799D01*
X224201Y36500D02*
X236799D01*
X230500Y30201D02*
Y42799D01*
X443386Y67122D02*
X448583D01*
X445984Y64524D02*
Y69721D01*
X435571Y43500D02*
X440650D01*
X438110Y40961D02*
Y46039D01*
X443386Y19878D02*
X448583D01*
X445984Y17279D02*
Y22476D01*
X491417Y19878D02*
X496614D01*
X494016Y17279D02*
Y22476D01*
X491417Y67122D02*
X496614D01*
X494016Y64524D02*
Y69721D01*
X20071Y178370D02*
X25189D01*
X22630Y175811D02*
Y180929D01*
X20071Y99630D02*
X25189D01*
X22630Y97071D02*
Y102189D01*
X98811Y119315D02*
X103929D01*
X101370Y116756D02*
Y121874D01*
X98811Y158685D02*
X103929D01*
X101370Y156126D02*
Y161244D01*
X381425Y181000D02*
X384575D01*
X383000Y179425D02*
Y182575D01*
X381425Y191000D02*
X384575D01*
X383000Y189425D02*
Y192575D01*
X360839Y74000D02*
X363791D01*
X362315Y72524D02*
Y75476D01*
X400209Y74000D02*
X403161D01*
X401685Y72524D02*
Y75476D01*
X359638Y57591D02*
X364362D01*
X362000Y55228D02*
Y59953D01*
X359638Y16409D02*
X364362D01*
X362000Y14047D02*
Y18772D01*
X175000Y113000D02*
X179000D01*
X177000Y111000D02*
Y115000D01*
X185000Y113000D02*
X189000D01*
X187000Y111000D02*
Y115000D01*
X195000Y113000D02*
X199000D01*
X197000Y111000D02*
Y115000D01*
X443386Y204122D02*
X448583D01*
X445984Y201524D02*
Y206720D01*
X435571Y180500D02*
X440650D01*
X438110Y177961D02*
Y183039D01*
X443386Y156878D02*
X448583D01*
X445984Y154279D02*
Y159476D01*
X491417Y156878D02*
X496614D01*
X494016Y154279D02*
Y159476D01*
X491417Y204122D02*
X496614D01*
X494016Y201524D02*
Y206720D01*
X529638Y201000D02*
X534362D01*
X532000Y198638D02*
Y203362D01*
X529638Y181500D02*
X534362D01*
X532000Y179138D02*
Y183862D01*
X529638Y162000D02*
X534362D01*
X532000Y159638D02*
Y164362D01*
X529638Y23000D02*
X534362D01*
X532000Y20638D02*
Y25362D01*
X529638Y42500D02*
X534362D01*
X532000Y40138D02*
Y44862D01*
X529638Y62000D02*
X534362D01*
X532000Y59638D02*
Y64362D01*
X360638Y205591D02*
X365362D01*
X363000Y203228D02*
Y207953D01*
X360638Y164409D02*
X365362D01*
X363000Y162047D02*
Y166772D01*
X339524Y204685D02*
X342476D01*
X341000Y203209D02*
Y206161D01*
X339524Y165315D02*
X342476D01*
X341000Y163839D02*
Y166791D01*
X345524Y68315D02*
X348476D01*
X347000Y66839D02*
Y69791D01*
X345524Y107685D02*
X348476D01*
X347000Y106209D02*
Y109161D01*
X382425Y32000D02*
X385575D01*
X384000Y30425D02*
Y33575D01*
X382425Y42000D02*
X385575D01*
X384000Y40425D02*
Y43575D01*
X399400Y133000D02*
X402600D01*
X401000Y131400D02*
Y134600D01*
X389400Y133000D02*
X392600D01*
X391000Y131400D02*
Y134600D01*
X409400Y133000D02*
X412600D01*
X411000Y131400D02*
Y134600D01*
X420209Y205000D02*
X423161D01*
X421685Y203524D02*
Y206476D01*
X380839Y205000D02*
X383791D01*
X382315Y203524D02*
Y206476D01*
X392000Y67000D02*
X394000D01*
X393000Y66000D02*
Y68000D01*
X422000Y67000D02*
X424000D01*
X423000Y66000D02*
Y68000D01*
X351000Y138000D02*
X353000D01*
X352000Y137000D02*
Y139000D01*
X351000Y165000D02*
X353000D01*
X352000Y164000D02*
Y166000D01*
X445000Y168500D02*
X447000D01*
X446000Y167500D02*
Y169500D01*
X445000Y194000D02*
X447000D01*
X446000Y193000D02*
Y195000D01*
M02*
