G04*
G04 #@! TF.GenerationSoftware,Altium Limited,Altium Designer,21.0.8 (223)*
G04*
G04 Layer_Physical_Order=2*
G04 Layer_Color=16711680*
%FSLAX25Y25*%
%MOIN*%
G70*
G04*
G04 #@! TF.SameCoordinates,FD3CFD28-5B3B-4256-89A7-50AFAC898629*
G04*
G04*
G04 #@! TF.FilePolarity,Positive*
G04*
G01*
G75*
%ADD16C,0.02000*%
%ADD35C,0.04921*%
%ADD36R,0.04921X0.04921*%
%ADD37C,0.06000*%
%ADD38R,0.04921X0.04921*%
%ADD44O,0.07600X0.15200*%
%ADD45O,0.07087X0.07087*%
%ADD46R,0.07087X0.07087*%
%ADD47R,0.07598X0.07598*%
%ADD48C,0.07598*%
%ADD49C,0.12598*%
%ADD50R,0.07795X0.07795*%
%ADD51C,0.07618*%
%ADD52C,0.07795*%
%ADD53R,0.06000X0.06000*%
%ADD54C,0.06299*%
%ADD55R,0.07874X0.07874*%
%ADD56C,0.07874*%
%ADD57O,0.06000X0.12000*%
%ADD58C,0.05000*%
G36*
X216500Y21500D02*
X217000Y21000D01*
X323000D01*
Y46000D01*
X307000D01*
Y76500D01*
X313686D01*
X313752Y76000D01*
X313648Y75972D01*
X312553Y75340D01*
X311660Y74447D01*
X311028Y73352D01*
X310701Y72132D01*
Y70868D01*
X311028Y69648D01*
X311660Y68553D01*
X312553Y67660D01*
X313648Y67028D01*
X314652Y66759D01*
Y66241D01*
X313648Y65972D01*
X312553Y65340D01*
X311660Y64447D01*
X311028Y63352D01*
X310701Y62132D01*
Y62000D01*
X320299D01*
Y62132D01*
X319972Y63352D01*
X319340Y64447D01*
X318447Y65340D01*
X317352Y65972D01*
X316348Y66241D01*
Y66759D01*
X317352Y67028D01*
X318447Y67660D01*
X319340Y68553D01*
X319972Y69648D01*
X320299Y70868D01*
Y72132D01*
X319972Y73352D01*
X319340Y74447D01*
X318447Y75340D01*
X317352Y75972D01*
X317249Y76000D01*
X317314Y76500D01*
X324000D01*
Y132000D01*
Y146500D01*
X347000D01*
X349961Y146412D01*
Y140864D01*
X349851Y140801D01*
X349199Y140149D01*
X348739Y139351D01*
X348511Y138500D01*
X355489D01*
X355261Y139351D01*
X354801Y140149D01*
X354149Y140801D01*
X354039Y140864D01*
Y145932D01*
X354398Y146280D01*
X431000Y144000D01*
X432987Y87360D01*
X432640Y87000D01*
X337500D01*
Y19000D01*
X337000Y18500D01*
X214000D01*
X214000Y98000D01*
X160000Y98000D01*
Y194500D01*
X216500D01*
Y21500D01*
D02*
G37*
%LPC*%
G36*
X411000Y141641D02*
X409747Y141476D01*
X408579Y140993D01*
X407577Y140223D01*
X406807Y139221D01*
X406323Y138053D01*
X406252Y137511D01*
X405748D01*
X405677Y138053D01*
X405193Y139221D01*
X404423Y140223D01*
X403421Y140993D01*
X402253Y141476D01*
X401000Y141641D01*
X399747Y141476D01*
X398579Y140993D01*
X397577Y140223D01*
X396807Y139221D01*
X396323Y138053D01*
X396252Y137511D01*
X395748D01*
X395676Y138053D01*
X395193Y139221D01*
X394423Y140223D01*
X393421Y140993D01*
X392253Y141476D01*
X391500Y141576D01*
Y133000D01*
Y124424D01*
X392253Y124524D01*
X393421Y125007D01*
X394423Y125777D01*
X395193Y126779D01*
X395676Y127947D01*
X395748Y128489D01*
X396252D01*
X396323Y127947D01*
X396807Y126779D01*
X397577Y125777D01*
X398579Y125007D01*
X399747Y124524D01*
X401000Y124359D01*
X402253Y124524D01*
X403421Y125007D01*
X404423Y125777D01*
X405193Y126779D01*
X405677Y127947D01*
X405748Y128489D01*
X406252D01*
X406323Y127947D01*
X406807Y126779D01*
X407577Y125777D01*
X408579Y125007D01*
X409747Y124524D01*
X411000Y124359D01*
X412253Y124524D01*
X413421Y125007D01*
X414423Y125777D01*
X415193Y126779D01*
X415676Y127947D01*
X415841Y129200D01*
Y136800D01*
X415676Y138053D01*
X415193Y139221D01*
X414423Y140223D01*
X413421Y140993D01*
X412253Y141476D01*
X411000Y141641D01*
D02*
G37*
G36*
X355489Y137500D02*
X352500D01*
Y134511D01*
X353351Y134739D01*
X354149Y135199D01*
X354801Y135851D01*
X355261Y136649D01*
X355489Y137500D01*
D02*
G37*
G36*
X351500D02*
X348511D01*
X348739Y136649D01*
X349199Y135851D01*
X349851Y135199D01*
X350649Y134739D01*
X351500Y134511D01*
Y137500D01*
D02*
G37*
G36*
X390500Y141576D02*
X389747Y141476D01*
X388579Y140993D01*
X387577Y140223D01*
X386807Y139221D01*
X386323Y138053D01*
X386159Y136800D01*
Y133500D01*
X390500D01*
Y141576D01*
D02*
G37*
G36*
Y132500D02*
X386159D01*
Y129200D01*
X386323Y127947D01*
X386807Y126779D01*
X387577Y125777D01*
X388579Y125007D01*
X389747Y124524D01*
X390500Y124424D01*
Y132500D01*
D02*
G37*
G36*
X187500Y119969D02*
Y113500D01*
X191034D01*
Y116000D01*
X190897Y117044D01*
X190494Y118017D01*
X189853Y118853D01*
X189017Y119494D01*
X188044Y119897D01*
X187500Y119969D01*
D02*
G37*
G36*
X186500D02*
X185956Y119897D01*
X184983Y119494D01*
X184147Y118853D01*
X183506Y118017D01*
X183103Y117044D01*
X182966Y116000D01*
Y113500D01*
X186500D01*
Y119969D01*
D02*
G37*
G36*
X414000Y112641D02*
X412747Y112476D01*
X411579Y111993D01*
X410577Y111223D01*
X409807Y110221D01*
X409324Y109053D01*
X409252Y108511D01*
X408748D01*
X408676Y109053D01*
X408193Y110221D01*
X407423Y111223D01*
X406421Y111993D01*
X405253Y112476D01*
X404000Y112641D01*
X402747Y112476D01*
X401579Y111993D01*
X400577Y111223D01*
X399807Y110221D01*
X399324Y109053D01*
X399252Y108511D01*
X398748D01*
X398676Y109053D01*
X398193Y110221D01*
X397423Y111223D01*
X396421Y111993D01*
X395253Y112476D01*
X394500Y112576D01*
Y104000D01*
Y95424D01*
X395253Y95524D01*
X396421Y96007D01*
X397423Y96777D01*
X398193Y97779D01*
X398676Y98947D01*
X398748Y99489D01*
X399252D01*
X399324Y98947D01*
X399807Y97779D01*
X400577Y96777D01*
X401579Y96007D01*
X402747Y95524D01*
X404000Y95359D01*
X405253Y95524D01*
X406421Y96007D01*
X407423Y96777D01*
X408193Y97779D01*
X408676Y98947D01*
X408748Y99489D01*
X409252D01*
X409324Y98947D01*
X409807Y97779D01*
X410577Y96777D01*
X411579Y96007D01*
X412747Y95524D01*
X414000Y95359D01*
X415253Y95524D01*
X416421Y96007D01*
X417423Y96777D01*
X418193Y97779D01*
X418677Y98947D01*
X418841Y100200D01*
Y107800D01*
X418677Y109053D01*
X418193Y110221D01*
X417423Y111223D01*
X416421Y111993D01*
X415253Y112476D01*
X414000Y112641D01*
D02*
G37*
G36*
X191034Y112500D02*
X187500D01*
Y106031D01*
X188044Y106103D01*
X189017Y106506D01*
X189853Y107147D01*
X190494Y107983D01*
X190897Y108956D01*
X191034Y110000D01*
Y112500D01*
D02*
G37*
G36*
X186500D02*
X182966D01*
Y110000D01*
X183103Y108956D01*
X183506Y107983D01*
X184147Y107147D01*
X184983Y106506D01*
X185956Y106103D01*
X186500Y106031D01*
Y112500D01*
D02*
G37*
G36*
X197000Y120035D02*
X195956Y119897D01*
X194983Y119494D01*
X194147Y118853D01*
X193506Y118017D01*
X193103Y117044D01*
X192965Y116000D01*
Y110000D01*
X193103Y108956D01*
X193506Y107983D01*
X194147Y107147D01*
X194983Y106506D01*
X195956Y106103D01*
X197000Y105965D01*
X198044Y106103D01*
X199017Y106506D01*
X199853Y107147D01*
X200494Y107983D01*
X200897Y108956D01*
X201034Y110000D01*
Y116000D01*
X200897Y117044D01*
X200494Y118017D01*
X199853Y118853D01*
X199017Y119494D01*
X198044Y119897D01*
X197000Y120035D01*
D02*
G37*
G36*
X177000D02*
X175956Y119897D01*
X174983Y119494D01*
X174147Y118853D01*
X173506Y118017D01*
X173103Y117044D01*
X172966Y116000D01*
Y110000D01*
X173103Y108956D01*
X173506Y107983D01*
X174147Y107147D01*
X174983Y106506D01*
X175956Y106103D01*
X177000Y105965D01*
X178044Y106103D01*
X179017Y106506D01*
X179853Y107147D01*
X180494Y107983D01*
X180897Y108956D01*
X181035Y110000D01*
Y116000D01*
X180897Y117044D01*
X180494Y118017D01*
X179853Y118853D01*
X179017Y119494D01*
X178044Y119897D01*
X177000Y120035D01*
D02*
G37*
G36*
X393500Y112576D02*
X392747Y112476D01*
X391579Y111993D01*
X390577Y111223D01*
X389807Y110221D01*
X389323Y109053D01*
X389159Y107800D01*
Y104500D01*
X393500D01*
Y112576D01*
D02*
G37*
G36*
X347456Y111146D02*
X346544D01*
X345664Y110910D01*
X344875Y110454D01*
X344231Y109810D01*
X343775Y109021D01*
X343539Y108141D01*
Y107229D01*
X343775Y106349D01*
X344231Y105560D01*
X344875Y104916D01*
X345664Y104460D01*
X346544Y104224D01*
X347456D01*
X348336Y104460D01*
X349125Y104916D01*
X349769Y105560D01*
X350225Y106349D01*
X350461Y107229D01*
Y108141D01*
X350225Y109021D01*
X349769Y109810D01*
X349125Y110454D01*
X348336Y110910D01*
X347456Y111146D01*
D02*
G37*
G36*
X393500Y103500D02*
X389159D01*
Y100200D01*
X389323Y98947D01*
X389807Y97779D01*
X390577Y96777D01*
X391579Y96007D01*
X392747Y95524D01*
X393500Y95424D01*
Y103500D01*
D02*
G37*
G36*
X320299Y61000D02*
X310701D01*
Y60868D01*
X311028Y59648D01*
X311660Y58553D01*
X312553Y57660D01*
X313648Y57028D01*
X314652Y56759D01*
Y56241D01*
X313648Y55972D01*
X312553Y55340D01*
X311660Y54447D01*
X311028Y53352D01*
X310701Y52132D01*
Y50868D01*
X311028Y49648D01*
X311660Y48553D01*
X312553Y47660D01*
X313648Y47028D01*
X314868Y46701D01*
X316132D01*
X317352Y47028D01*
X318447Y47660D01*
X319340Y48553D01*
X319972Y49648D01*
X320299Y50868D01*
Y52132D01*
X319972Y53352D01*
X319340Y54447D01*
X318447Y55340D01*
X317352Y55972D01*
X316348Y56241D01*
Y56759D01*
X317352Y57028D01*
X318447Y57660D01*
X319340Y58553D01*
X319972Y59648D01*
X320299Y60868D01*
Y61000D01*
D02*
G37*
%LPD*%
D16*
X393000Y67000D02*
X423000D01*
X352000Y138000D02*
Y165000D01*
X446000Y168500D02*
Y194000D01*
D35*
X362315Y74000D02*
D03*
X341000Y165315D02*
D03*
X347000Y107685D02*
D03*
X421685Y205000D02*
D03*
D36*
X401685Y74000D02*
D03*
X382315Y205000D02*
D03*
D37*
X22630Y99630D02*
D03*
X101370Y119315D02*
D03*
Y158685D02*
D03*
D38*
X341000Y204685D02*
D03*
X347000Y68315D02*
D03*
D44*
X404000Y104000D02*
D03*
X394000D02*
D03*
X414000D02*
D03*
X401000Y133000D02*
D03*
X391000D02*
D03*
X411000D02*
D03*
D45*
X49000Y19500D02*
D03*
Y39000D02*
D03*
X532000Y181500D02*
D03*
Y162000D02*
D03*
Y23000D02*
D03*
Y42500D02*
D03*
D46*
X49000Y58500D02*
D03*
X532000Y201000D02*
D03*
Y62000D02*
D03*
D47*
X225500Y191500D02*
D03*
X315500D02*
D03*
D48*
X225500Y181500D02*
D03*
Y171500D02*
D03*
Y161500D02*
D03*
Y151500D02*
D03*
Y141500D02*
D03*
Y131500D02*
D03*
Y121500D02*
D03*
Y111500D02*
D03*
Y101500D02*
D03*
Y91500D02*
D03*
Y81500D02*
D03*
Y71500D02*
D03*
Y61500D02*
D03*
Y51500D02*
D03*
X315500Y181500D02*
D03*
Y171500D02*
D03*
Y161500D02*
D03*
Y151500D02*
D03*
Y141500D02*
D03*
Y131500D02*
D03*
Y121500D02*
D03*
Y111500D02*
D03*
Y101500D02*
D03*
Y91500D02*
D03*
Y81500D02*
D03*
Y71500D02*
D03*
Y61500D02*
D03*
Y51500D02*
D03*
D49*
X230500Y206500D02*
D03*
X310500D02*
D03*
Y36500D02*
D03*
X230500D02*
D03*
D50*
X445984Y67122D02*
D03*
Y204122D02*
D03*
D51*
X438110Y43500D02*
D03*
Y180500D02*
D03*
D52*
X445984Y19878D02*
D03*
X494016D02*
D03*
Y67122D02*
D03*
X445984Y156878D02*
D03*
X494016D02*
D03*
Y204122D02*
D03*
D53*
X22630Y178370D02*
D03*
D54*
X383000Y181000D02*
D03*
Y191000D02*
D03*
X384000Y32000D02*
D03*
Y42000D02*
D03*
D55*
X362000Y57591D02*
D03*
X363000Y205591D02*
D03*
D56*
X362000Y16409D02*
D03*
X363000Y164409D02*
D03*
D57*
X177000Y113000D02*
D03*
X187000D02*
D03*
X197000D02*
D03*
D58*
X393000Y67000D02*
D03*
X423000D02*
D03*
X352000Y138000D02*
D03*
Y165000D02*
D03*
X446000Y168500D02*
D03*
Y194000D02*
D03*
M02*
