M48
;Layer_Color=255
;FILE_FORMAT=2:5
INCH,LZ
;TYPE=PLATED
T1F00S00C0.02000
T2F00S00C0.02953
T3F00S00C0.03150
T4F00S00C0.03200
T5F00S00C0.03500
T6F00S00C0.04000
T7F00S00C0.04724
T8F00S00C0.05079
T9F00S00C0.05118
T10F00S00C0.05197
;TYPE=NON_PLATED
T11F00S00C0.12598
%
T01
X0393Y0067
X0423
X0446Y01685
Y0194
X0352Y0165
Y0138
T02
X0347Y0068315
X0362315Y0074
X0401685
X0347Y0107685
X0341Y0165315
Y0204685
X0382315Y0205
X0421685
T03
X0384Y0032
Y0042
X0383Y0181
Y0191
T04
X0394Y0104
X0404
X0414
X0411Y0133
X0401
X0391
T05
X02255Y00515
X03155
Y00615
Y00715
Y00815
Y00915
Y01015
Y01115
Y01215
Y01315
Y01415
Y01515
Y01615
Y01715
Y01815
Y01915
X02255
Y01815
Y01715
Y01615
Y01515
Y01415
Y01315
Y01215
Y01115
Y01015
Y00915
Y00815
Y00715
Y00615
T06
X0177Y0113
X0187
X0197
T07
X0049Y00195
Y0039
X0362Y0057591
Y0016409
X0532Y0023
Y00425
Y0062
Y0162
Y01815
Y0201
X0363Y0205591
Y0164409
X0049Y00585
T08
X043811Y00435
Y01805
T09
X002263Y009963
Y017837
X010137Y0158685
Y0119315
T10
X0445984Y0019878
X0494016
Y0067122
Y0156878
Y0204122
X0445984
Y0156878
Y0067122
T11
X02305Y00365
X03105
Y02065
X02305
M30
